<svg xmlns="http://www.w3.org/2000/svg" viewBox="0 0 43 33" width="43" height="33">
	<style>
		tspan { white-space:pre }
		.shp0 { fill: #a2abb8 } 
	</style>
	<g id="header">
		<g id="popup">
			<g id="2">
				<path id="-e-addbalance" class="shp0" d="M6.74 24.11L11.03 24.11C11.31 24.11 11.5 24.3 11.5 24.58L11.5 27.18C11.5 27.47 11.31 27.66 11.03 27.66L6.74 27.66C6.46 27.66 6.27 27.47 6.27 27.18L6.27 24.58C6.27 24.3 6.46 24.11 6.74 24.11ZM2.87 32.96L34.13 32.96C35.16 32.96 36 32.11 36 31.07L36 25.86L39.5 25.86C41.41 25.86 43 24.25 43 22.31L43 4.55C43 2.61 41.41 1 39.5 1L39.5 1L11.5 1C9.59 1 8 2.61 8 4.55L8 8.1L2.87 8.1C1.84 8.1 1 8.95 1 10L1 31.07C1 32.16 1.84 33.01 2.87 32.96C2.87 33.01 2.87 33.01 2.87 32.96ZM39.5 4.55L39.5 22.31L36 22.31L36 10C36 8.95 35.16 8.1 34.13 8.1L11.5 8.1C11.5 6.54 11.5 4.55 11.5 4.55L39.5 4.55ZM4.5 11.65L32.5 11.65L32.5 29.41L4.5 29.41L4.5 11.65ZM25.97 13.45L30.26 13.45C30.54 13.45 30.73 13.64 30.73 13.93L30.73 16.53C30.73 16.81 30.54 17 30.26 17L25.97 17C25.69 17 25.5 16.81 25.5 16.53L25.5 13.93C25.5 13.64 25.73 13.45 25.97 13.45ZM18.5 15.25C21.39 15.25 23.73 17.63 23.73 20.56C23.73 23.48 21.39 25.86 18.5 25.86C15.61 25.86 13.27 23.48 13.27 20.56C13.27 17.63 15.61 15.25 18.5 15.25Z" />
			</g>
		</g>
	</g>
</svg>