<svg xmlns="http://www.w3.org/2000/svg" viewBox="0 0 34 37" width="34" height="37">
	<style>
		tspan { white-space:pre }
		.shp0 { fill: #0b76ff } 
	</style>
	<g id="header">
		<g id="popup">
			<g id="4:hover">
				<path id="-e-history" class="shp0" d="M25.76 22.6L18.5 22.6C17.97 22.6 17.52 23.03 17.52 23.56L17.52 25.24C17.52 25.77 17.97 26.2 18.5 26.2L25.71 26.2C26.25 26.2 26.69 25.77 26.69 25.24L26.69 23.56C26.74 23.03 26.3 22.6 25.76 22.6ZM3.65 36.81L6.49 35.41L9.33 36.81C9.87 37.05 10.46 37.05 10.95 36.81L13.8 35.41L16.64 36.81C17.18 37.05 17.77 37.05 18.26 36.81L21.1 35.41L23.95 36.81C24.49 37.05 25.08 37.05 25.61 36.81L28.51 35.41L31.35 36.81C32.28 37.24 33.36 36.9 33.8 35.99C33.95 35.75 34 35.46 34 35.17L34 4.6C34 2.63 32.38 1 30.32 1L30.32 1L4.68 1C2.67 1 1 2.58 1 4.6L1 4.6L1 35.22C1 36.23 1.83 37 2.86 37C3.11 37 3.4 36.95 3.65 36.81ZM4.68 4.6L30.42 4.6L30.42 32.29L29.39 31.81C28.85 31.57 28.26 31.57 27.77 31.81L24.93 33.2L22.04 31.81C21.5 31.57 20.91 31.57 20.42 31.81L17.57 33.2L14.73 31.81C14.19 31.57 13.6 31.57 13.11 31.81L10.27 33.2L7.37 31.81C6.83 31.57 6.25 31.57 5.71 31.81L4.68 32.29L4.68 4.6ZM9.33 11.8L25.76 11.8C26.3 11.8 26.74 11.37 26.74 10.84L26.74 9.16C26.74 8.63 26.3 8.2 25.76 8.2L9.33 8.2C8.8 8.2 8.35 8.63 8.35 9.16L8.35 10.84C8.35 11.37 8.8 11.8 9.33 11.8L9.33 11.8ZM9.33 19L25.76 19C26.3 19 26.74 18.57 26.74 18.04L26.74 16.36C26.74 15.83 26.3 15.4 25.76 15.4L9.33 15.4C8.8 15.4 8.35 15.83 8.35 16.36L8.35 18.04C8.35 18.57 8.8 19 9.33 19L9.33 19Z" />
			</g>
		</g>
	</g>
</svg>