<svg xmlns="http://www.w3.org/2000/svg" viewBox="0 0 37 40" width="37" height="40">
	<style>
		tspan { white-space:pre }
		.shp0 { fill: #a2abb8 } 
	</style>
	<g id="header">
		<g id="popup">
			<g id="3">
				<path id="-e-movemoney" class="shp0" d="M26.68 33.55L31.1 33.55C31.38 33.55 31.58 33.36 31.58 33.07L31.58 30.42C31.58 30.13 31.38 29.94 31.1 29.94L26.68 29.94C26.39 29.94 26.2 30.13 26.2 30.42L26.2 33.07C26.2 33.36 26.39 33.55 26.68 33.55ZM6.9 22.7L11.32 22.7C11.61 22.7 11.8 22.51 11.8 22.22L11.8 19.57C11.8 19.28 11.61 19.09 11.32 19.09L6.9 19.09C6.62 19.09 6.42 19.28 6.42 19.57L6.42 22.22C6.42 22.51 6.62 22.7 6.9 22.7ZM2.92 13.69L17.18 13.69L17.18 7.22L14.87 9.54C14.15 10.21 13 10.17 12.33 9.44C11.7 8.77 11.7 7.66 12.33 6.98L17.7 1.53C18.42 0.81 19.53 0.81 20.25 1.53L25.67 6.94C26.39 7.61 26.44 8.77 25.77 9.49C25.1 10.21 23.94 10.26 23.22 9.59C23.18 9.54 23.18 9.54 23.13 9.49L20.82 7.22L20.82 13.69L35.08 13.69C36.14 13.69 37 14.55 37 15.61L37 37.07C37 38.13 36.14 39 35.08 39L2.92 39C1.86 39 1 38.13 1 37.07L1 15.61C1 14.55 1.86 13.69 2.92 13.69L2.92 13.69ZM4.6 35.39L33.4 35.39L33.4 17.3L20.82 17.3L20.82 21.21C23.66 22.22 25.1 25.31 24.14 28.15C23.18 31 20.06 32.44 17.22 31.48C14.39 30.51 12.95 27.38 13.91 24.54C14.44 22.99 15.69 21.79 17.22 21.21L17.22 17.3L4.6 17.3L4.6 35.39Z" />
			</g>
		</g>
	</g>
</svg>