<svg xmlns="http://www.w3.org/2000/svg" viewBox="0 0 24 23" width="24" height="23">
	<style>
		tspan { white-space:pre }
		.shp0 { fill: #ffffff } 
	</style>
	<g id="header">
		<g id="sub">
			<g id="profile">
				<g id="true">
					<g id="buttons">
						<g id="deposit">
							<g id="normal">
								<path id="-e-plus" class="shp0" d="M23.93 11.33C23.83 10.47 23.16 9.8 22.24 9.69L14.41 9.69L14.4 1.75C14.27 0.72 13.34 -0.01 12.31 0.12C11.46 0.22 10.79 0.89 10.68 1.81L10.69 9.68L2.85 9.68C1.83 9.68 1 10.52 0.99 11.55L0.99 11.55C0.99 12.59 1.83 13.43 2.87 13.43L10.7 13.44L10.71 21.39C10.85 22.31 11.65 22.98 12.56 22.98C12.66 22.98 12.75 22.97 12.85 22.96C13.67 22.83 14.29 22.2 14.42 21.3L14.41 13.43L22.31 13.43C22.8 13.37 23.25 13.12 23.55 12.72C23.86 12.32 24 11.83 23.93 11.33Z" />
							</g>
						</g>
					</g>
				</g>
			</g>
		</g>
	</g>
</svg>