<svg xmlns="http://www.w3.org/2000/svg" viewBox="0 0 38 36" width="38" height="36">
	<style>
		tspan { white-space:pre }
		.shp0 { fill: #a2abb8 } 
	</style>
	<g id="header">
		<g id="popup">
			<g id="5">
				<path id="-e-promo" class="shp0" d="M23.64 19.52C25 19.52 26.11 20.63 26.11 22C26.11 23.37 25 24.48 23.64 24.48C22.28 24.48 21.17 23.37 21.17 22C21.17 20.63 22.28 19.52 23.64 19.52ZM15.4 11.21C16.76 11.21 17.87 12.32 17.87 13.68C17.87 15.05 16.76 16.16 15.4 16.16C14.04 16.16 12.93 15.05 12.93 13.68C12.93 12.32 14.04 11.21 15.4 11.21ZM3.85 22.36C4.2 22.75 4.34 23.29 4.29 23.77L3.89 26.52C3.63 28.33 4.86 30.06 6.72 30.37L9.36 30.85C9.84 30.99 10.29 31.29 10.55 31.74L11.83 34.17C12.71 35.81 14.69 36.47 16.32 35.63L18.75 34.44C19.23 34.22 19.76 34.22 20.2 34.44L22.63 35.63C24.3 36.43 26.28 35.76 27.12 34.17L28.4 31.74C28.66 31.29 29.11 30.99 29.59 30.85L32.23 30.37C34.04 30.06 35.28 28.33 35.05 26.52L34.7 23.77C34.66 23.24 34.79 22.75 35.14 22.36L37.04 20.37C38.32 19.04 38.32 16.91 37.04 15.59L35.14 13.64C34.83 13.24 34.66 12.75 34.7 12.22L35.1 9.48C35.36 7.67 34.13 5.94 32.28 5.63L29.63 5.14C29.15 5.01 28.71 4.7 28.44 4.26L27.17 1.83C26.28 0.19 24.3 -0.48 22.67 0.37L20.25 1.56C19.76 1.78 19.23 1.78 18.79 1.56L16.37 0.37C14.69 -0.43 12.71 0.23 11.87 1.83L10.59 4.26C10.33 4.7 9.89 5.01 9.4 5.14L6.76 5.63C4.95 5.94 3.72 7.67 3.94 9.48L4.29 12.22C4.34 12.75 4.16 13.24 3.85 13.64L1.96 15.63C0.68 16.96 0.68 19.08 1.96 20.41L3.85 22.36ZM6.23 15.94C7.29 14.83 7.77 13.29 7.55 11.74C7.55 11.74 7.24 8.91 7.29 8.86L9.93 8.37C11.43 8.06 12.71 7.13 13.46 5.76L14.74 3.33C14.74 3.29 17.29 4.48 17.29 4.48C18.7 5.14 20.29 5.14 21.7 4.48L24.12 3.29C24.17 3.29 25.54 5.76 25.54 5.76C26.28 7.09 27.56 8.06 29.06 8.37L31.71 8.86C31.75 8.86 31.44 11.74 31.44 11.74C31.26 13.24 31.75 14.79 32.81 15.94L34.7 17.93C34.75 17.98 32.85 20.1 32.85 20.1C31.79 21.21 31.31 22.75 31.49 24.26L31.88 27C31.88 27.05 29.15 27.62 29.15 27.62C27.65 27.93 26.37 28.86 25.62 30.23L24.35 32.67C24.35 32.71 21.79 31.52 21.79 31.52C20.38 30.85 18.79 30.85 17.38 31.52L14.87 32.62C14.83 32.62 13.46 30.14 13.46 30.14C12.71 28.82 11.43 27.84 9.93 27.53C9.93 27.53 7.2 26.96 7.2 26.91L7.6 24.17C7.77 22.67 7.29 21.12 6.23 20.01C6.23 20.01 4.29 17.89 4.34 17.84L6.23 15.94ZM15.71 23.99L25.62 14.04C26.28 13.42 26.33 12.36 25.71 11.69C25.09 11.03 24.04 10.99 23.38 11.6C23.33 11.65 23.33 11.65 23.29 11.69L13.37 21.65C12.75 22.31 12.8 23.37 13.46 23.99C14.12 24.57 15.09 24.57 15.71 23.99L15.71 23.99Z" />
			</g>
		</g>
	</g>
</svg>