<svg xmlns="http://www.w3.org/2000/svg" viewBox="0 0 38 35" width="38" height="35">
	<style>
		tspan { white-space:pre }
		.shp0 { fill: #a2abb8 } 
	</style>
	<g id="header">
		<g id="popup">
			<g id="6">
				<path id="-e-settings" class="shp0" d="M17.9 2.62L17.9 5.95C15.47 6.65 13.69 8.88 13.69 11.51C13.69 14.14 15.47 16.38 17.9 17.08L17.9 33.38C17.9 34.25 18.59 35 19.5 35C20.37 35 21.1 34.3 21.1 33.38L21.1 17.12C23.53 16.42 25.3 14.19 25.3 11.56C25.3 8.93 23.53 6.69 21.1 5.99L21.1 2.66C21.1 1.79 20.41 1.04 19.5 1.04C18.63 1 17.9 1.7 17.9 2.62ZM22.1 11.51C22.1 12.92 20.97 14.14 19.5 14.14C18.03 14.14 16.9 13 16.9 11.51C16.9 10.02 18.03 8.88 19.5 8.88C20.97 8.88 22.1 10.11 22.1 11.51ZM8.41 33.38L8.41 29.92C10.83 29.21 12.61 26.98 12.61 24.35C12.61 21.72 10.83 19.49 8.41 18.79L8.41 2.62C8.41 1.74 7.71 1 6.8 1C5.9 1 5.2 1.7 5.2 2.62L5.2 18.79C2.78 19.49 1 21.72 1 24.35C1 26.98 2.78 29.21 5.2 29.92L5.2 33.38C5.2 34.25 5.9 35 6.8 35C7.71 35 8.41 34.3 8.41 33.38ZM4.2 24.35C4.2 22.95 5.33 21.72 6.8 21.72C8.28 21.72 9.4 22.86 9.4 24.35C9.4 25.84 8.19 26.98 6.8 26.98C5.42 26.98 4.2 25.75 4.2 24.35ZM30.59 2.62L30.59 18.79C28.16 19.49 26.39 21.72 26.39 24.35C26.39 26.98 28.16 29.21 30.59 29.92L30.59 33.38C30.59 34.25 31.28 35 32.19 35C33.1 35 33.8 34.3 33.8 33.38L33.8 29.92C36.22 29.21 38 26.98 38 24.35C38 21.72 36.22 19.49 33.8 18.79L33.8 2.62C33.8 1.74 33.1 1 32.19 1C31.28 1 30.59 1.7 30.59 2.62ZM34.79 24.35C34.79 25.75 33.67 26.98 32.19 26.98C30.72 26.98 29.59 25.84 29.59 24.35C29.59 22.86 30.72 21.72 32.19 21.72C33.67 21.72 34.79 22.95 34.79 24.35Z" />
			</g>
		</g>
	</g>
</svg>