<svg xmlns="http://www.w3.org/2000/svg" viewBox="0 0 34 43" width="34" height="43">
	<style>
		tspan { white-space:pre }
		.shp0 { fill: #ffffff } 
	</style>
	<g id="header">
		<g id="sub">
			<g id="menu">
				<g id="support">
					<g id="normal">
						<path id="-e-support-icon" class="shp0" d="M17.5 1C8.42 1 1 8.27 1 17.15L1 28.46C1 29.43 1.66 30.07 2.65 30.07L4.3 30.07L5.95 30.07C6.94 30.07 7.6 29.43 7.6 28.46L7.6 21.35C7.6 20.71 7.27 20.22 6.61 19.9L4.3 18.77L4.3 17.15C4.3 10.04 10.24 4.23 17.5 4.23C24.76 4.23 30.7 10.04 30.7 17.15L30.7 18.77L28.39 19.9C27.89 20.22 27.4 20.71 27.4 21.35L27.4 28.46C27.4 29.43 28.06 30.07 29.05 30.07L30.7 30.07L32.35 30.07C33.34 30.07 34 29.43 34 28.46L34 17.15C34 8.27 26.57 1 17.5 1ZM24.1 38.15L20.3 38.15C19.81 37.18 18.65 36.54 17.5 36.54C15.68 36.54 14.2 37.99 14.2 39.77C14.2 41.54 15.68 43 17.5 43C18.65 43 19.81 42.35 20.3 41.38L24.1 41.38C28.72 41.38 32.35 37.83 32.35 33.31L29.05 33.31C29.05 36.05 26.9 38.15 24.1 38.15Z" />
					</g>
				</g>
			</g>
		</g>
	</g>
</svg>